<?xml version="1.0" encoding="UTF-8"?>
<!DOCTYPE svg PUBLIC "-//W3C//DTD SVG 1.1//EN" "http://www.w3.org/Graphics/SVG/1.1/DTD/svg11.dtd">
<!-- Creator: CorelDRAW X8 -->
<svg xmlns="http://www.w3.org/2000/svg" xml:space="preserve" width="70.0827mm" height="61.5862mm" version="1.1" style="shape-rendering:geometricPrecision; text-rendering:geometricPrecision; image-rendering:optimizeQuality; fill-rule:evenodd; clip-rule:evenodd"
viewBox="0 0 3782 3323"
 xmlns:xlink="http://www.w3.org/1999/xlink">
 <defs>
  <style type="text/css">
   <![CDATA[
    .fil1 {fill:#332C2B}
    .fil0 {fill:#332C2B;fill-rule:nonzero}
   ]]>
  </style>
 </defs>
 <g id="图层_x0020_1">
  <metadata id="CorelCorpID_0Corel-Layer"/>
  <path class="fil0" d="M714 1000l194 -52c119,-32 190,-6 212,77 15,56 6,107 -27,150 -33,42 -88,74 -162,94l-259 69 -215 1727c-18,143 -74,227 -167,252 -42,11 -79,8 -115,-10 -35,-18 -57,-45 -67,-83 -7,-27 -7,-75 1,-144l206 -1646 -96 26c-120,32 -190,7 -212,-74 -15,-58 -6,-109 27,-152 33,-43 87,-75 163,-95l159 -43 62 -488c20,-163 64,-285 132,-369 67,-84 171,-145 312,-183l160 -43c119,-32 190,-6 212,76 15,59 7,111 -26,155 -33,44 -87,76 -162,96l-42 11c-79,21 -136,54 -173,98 -37,44 -61,108 -72,192l-45 359z"/>
  <path class="fil0" d="M2265 1177l215 -517 18 -41c36,-87 87,-139 154,-157 42,-11 81,-7 115,14 35,20 57,52 69,93 11,44 -2,110 -39,198l-349 804c-46,106 -106,168 -180,188 -61,17 -119,7 -173,-27 -55,-35 -91,-86 -109,-152 -4,-17 -8,-35 -9,-54l-22 -266 -176 490c-37,103 -92,165 -165,184 -63,17 -120,7 -174,-31 -53,-38 -90,-96 -111,-173 -3,-11 -5,-20 -6,-28l-118 -599c-15,-77 -11,-141 12,-191 24,-50 65,-83 123,-98 88,-24 145,12 171,109 4,16 8,34 11,54l67 403 194 -532c41,-113 106,-181 194,-205 55,-15 102,-11 142,11 40,23 67,60 81,112 6,22 10,38 12,49l53 362z"/>
  <path class="fil0" d="M3256 731l-9 73c-17,104 -63,167 -139,187 -39,10 -77,6 -114,-12 -38,-19 -62,-45 -71,-80 -9,-33 -7,-80 6,-142l84 -430c22,-104 67,-165 136,-183 36,-10 70,-6 103,11 33,17 54,42 62,74 3,9 5,28 6,57 2,22 5,41 9,57 16,59 55,113 116,163l110 90c112,91 183,190 212,296 31,118 13,228 -54,331 -66,103 -165,172 -297,207l-294 79c-118,31 -188,6 -210,-76 -15,-57 -6,-107 27,-150 34,-44 87,-75 161,-95l163 -44c131,-35 183,-100 158,-195 -9,-35 -33,-73 -70,-113l-95 -105z"/>
  <path class="fil1" d="M1147 2511c0,0 2764,-1089 2607,-455 -158,634 -359,-25 -1145,169 -498,124 -1089,364 -1405,428 -116,24 -218,-75 -57,-142z"/>
 </g>
</svg>
