<?xml version="1.0" encoding="UTF-8"?>
<!DOCTYPE svg PUBLIC "-//W3C//DTD SVG 1.1//EN" "http://www.w3.org/Graphics/SVG/1.1/DTD/svg11.dtd">
<!-- Creator: CorelDRAW X8 -->
<svg xmlns="http://www.w3.org/2000/svg" xml:space="preserve" width="15.8752mm" height="11.1125mm" version="1.1" style="shape-rendering:geometricPrecision; text-rendering:geometricPrecision; image-rendering:optimizeQuality; fill-rule:evenodd; clip-rule:evenodd"
viewBox="0 0 33 23"
 xmlns:xlink="http://www.w3.org/1999/xlink">
 <defs>
  <style type="text/css">
   <![CDATA[
    .fil3 {fill:#1A1626}
    .fil1 {fill:#302C3B}
    .fil2 {fill:#4E5E67}
    .fil0 {fill:#6E8189}
    .fil4 {fill:white}
   ]]>
  </style>
 </defs>
 <g id="图层_x0020_1">
  <metadata id="CorelCorpID_0Corel-Layer"/>
  <path class="fil0" d="M32 0c-4,0 -8,0 -10,4 0,3 0,6 0,6 0,0 -3,2 -6,5 -2,-3 -5,-5 -5,-5 0,0 0,-3 0,-6 -3,-4 -6,-4 -10,-4 1,2 1,7 0,9 2,1 4,4 5,7 4,0 8,2 10,7 3,-5 7,-7 11,-7 1,-3 3,-6 5,-7 -1,-2 -1,-7 0,-9z"/>
  <path class="fil1" d="M32 9c0,0 -9,-5 -9,-5 2,-3 5,-4 10,-3 -3,-2 -9,-1 -11,2 -1,-1 -2,0 -2,0 1,0 1,1 1,2 0,3 0,4 0,4 0,0 -2,2 -5,5 -2,-3 -4,-5 -4,-5 0,0 0,-1 0,-4 0,-1 0,-2 1,-2 0,0 -1,-1 -2,0 -2,-3 -8,-4 -11,-2 5,-1 8,0 10,3 0,0 -9,5 -9,5 0,0 10,-4 10,-4 -5,5 -5,10 -5,11 0,0 2,-6 5,-10 0,0 0,3 0,4 3,2 5,6 5,6 0,0 3,-4 6,-6 0,-1 0,-4 0,-4 3,4 5,10 5,10 0,-1 0,-6 -5,-11 0,0 10,4 10,4z"/>
  <path class="fil1" d="M13 11c-2,-2 0,-4 -1,-6 2,1 2,3 4,3 0,0 -3,3 -3,3z"/>
  <path class="fil2" d="M14 11c-2,-2 -1,-3 -1,-4 1,0 0,2 2,2 0,0 -1,2 -1,2z"/>
  <path class="fil1" d="M20 11c2,-2 0,-4 1,-6 -2,1 -2,3 -4,3 0,0 2,3 3,3z"/>
  <path class="fil2" d="M19 11c2,-2 1,-3 1,-4 -1,0 0,2 -2,2 0,0 1,2 1,2z"/>
  <path class="fil1" d="M14 12c-4,-6 9,-6 5,0 1,2 2,4 2,4 0,0 -1,-1 -1,-1 0,1 0,1 0,2 0,0 0,0 0,0 0,0 0,0 0,1l0 -1c-1,1 -1,2 -1,2l0 -1c0,0 -1,6 -1,3 -1,3 -2,3 -3,0 0,3 -1,-3 -1,-3l0 1c0,0 0,-1 -1,-2l0 1c0,-1 0,-1 0,-1 0,0 0,0 0,0 0,-1 0,-1 0,-2 0,0 -1,1 -1,1 0,0 1,-2 2,-4z"/>
  <path class="fil0" d="M15 15c0,0 0,0 0,0 0,0 1,1 1,1 -1,-1 0,-1 0,-1 0,0 0,1 0,1 0,0 1,-1 1,-1 0,0 0,0 0,1 0,0 1,-1 1,-1 0,0 0,0 0,0l1 -1c0,1 -1,2 -1,2 0,0 0,0 0,-1 0,0 -1,1 -1,1 0,0 0,0 0,0l-1 0 0 0c0,0 0,0 0,0 0,0 -1,-1 -1,-1 0,1 0,1 0,1 0,0 -1,-1 -1,-2l1 1z"/>
  <path class="fil3" d="M14 10c0,0 0,-1 0,-1 1,0 1,1 0,1z"/>
  <path id="Shape_4_" class="fil4" d="M14 9c0,1 0,1 0,0 0,0 0,0 0,0l0 0z"/>
  <path class="fil3" d="M19 10c-1,0 -1,-1 0,-1 0,0 0,1 0,1z"/>
  <path id="Shape_11_" class="fil4" d="M18 9c0,1 0,1 0,0 0,0 0,0 0,0l0 0z"/>
  <path class="fil2" d="M15 11c0,-1 1,-1 1,-1 1,0 2,0 2,1 0,0 -1,0 -2,0 0,0 -1,0 -1,0z"/>
  <path class="fil0" d="M16 11c0,-1 0,-1 0,-1 1,0 0,1 0,1z"/>
 </g>
</svg>
