<?xml version="1.0" encoding="UTF-8"?>
<!DOCTYPE svg PUBLIC "-//W3C//DTD SVG 1.1//EN" "http://www.w3.org/Graphics/SVG/1.1/DTD/svg11.dtd">
<!-- Creator: CorelDRAW X8 -->
<svg xmlns="http://www.w3.org/2000/svg" xml:space="preserve" width="55.6333mm" height="48.8886mm" version="1.1" style="shape-rendering:geometricPrecision; text-rendering:geometricPrecision; image-rendering:optimizeQuality; fill-rule:evenodd; clip-rule:evenodd"
viewBox="0 0 2681 2356"
 xmlns:xlink="http://www.w3.org/1999/xlink">
 <defs>
  <style type="text/css">
   <![CDATA[
    .fil1 {fill:#1D1819}
    .fil0 {fill:#1D1819;fill-rule:nonzero}
   ]]>
  </style>
 </defs>
 <g id="图层_x0020_1">
  <metadata id="CorelCorpID_0Corel-Layer"/>
  <path class="fil0" d="M506 709l138 -37c84,-22 134,-4 150,55 11,40 5,75 -19,106 -24,30 -62,53 -115,67l-184 49 -152 1224c-12,101 -52,161 -119,179 -29,8 -56,5 -81,-7 -25,-13 -40,-32 -48,-59 -5,-19 -5,-53 1,-102l146 -1167 -68 18c-84,23 -134,5 -150,-52 -11,-41 -4,-77 19,-108 24,-31 62,-53 115,-68l114 -30 43 -346c15,-115 46,-202 94,-262 48,-59 121,-102 221,-129l114 -31c84,-22 134,-4 150,54 11,42 5,79 -19,110 -23,31 -61,54 -114,68l-30 8c-56,15 -97,38 -123,70 -26,31 -43,76 -51,136l-32 254z"/>
  <path class="fil0" d="M1606 835l153 -367 12 -29c26,-62 62,-99 109,-111 30,-8 58,-5 82,9 24,15 41,37 49,67 8,31 -1,78 -28,140l-247 570c-33,75 -76,119 -128,133 -43,12 -84,5 -123,-19 -38,-25 -64,-61 -77,-108 -3,-12 -5,-25 -7,-38l-15 -188 -125 347c-26,73 -65,117 -116,131 -45,11 -86,4 -124,-23 -38,-27 -64,-68 -78,-122 -3,-8 -4,-15 -5,-20l-84 -425c-10,-55 -7,-100 9,-135 17,-36 46,-59 87,-70 63,-17 103,9 121,77 3,11 6,24 8,39l47 285 138 -377c29,-80 75,-128 138,-145 39,-10 72,-8 100,8 29,16 48,42 58,79 4,16 7,27 8,35l38 257z"/>
  <path class="fil0" d="M2309 519l-7 51c-11,74 -44,118 -98,133 -28,7 -55,4 -81,-9 -27,-13 -44,-32 -51,-57 -6,-23 -4,-56 5,-100l60 -305c15,-74 47,-117 95,-130 26,-7 51,-4 74,8 23,12 38,29 44,52 2,7 3,20 4,41 1,15 4,29 7,40 11,42 38,81 81,116l79 63c79,65 129,135 150,210 22,84 9,162 -38,235 -47,73 -118,122 -211,147l-208 56c-84,22 -134,4 -149,-54 -11,-40 -5,-76 19,-106 24,-31 61,-54 114,-68l115 -31c93,-25 131,-71 113,-138 -7,-25 -24,-52 -50,-80l-67 -74z"/>
  <path class="fil1" d="M813 1780c0,0 1960,-772 1848,-322 -111,449 -321,-16 -878,122 -353,88 -706,250 -929,301 -83,19 -105,-70 -41,-101z"/>
 </g>
</svg>
