<?xml version="1.0" encoding="UTF-8"?>
<!DOCTYPE svg PUBLIC "-//W3C//DTD SVG 1.1//EN" "http://www.w3.org/Graphics/SVG/1.1/DTD/svg11.dtd">
<!-- Creator: CorelDRAW X8 -->
<svg xmlns="http://www.w3.org/2000/svg" xml:space="preserve" width="36.908mm" height="26.2551mm" version="1.1" style="shape-rendering:geometricPrecision; text-rendering:geometricPrecision; image-rendering:optimizeQuality; fill-rule:evenodd; clip-rule:evenodd"
viewBox="0 0 193 137"
 xmlns:xlink="http://www.w3.org/1999/xlink">
 <defs>
  <style type="text/css">
   <![CDATA[
    .fil3 {fill:#FEFEFE}
    .fil4 {fill:#332C2B}
    .fil2 {fill:#EC7DAE}
    .fil1 {fill:#E9599A}
    .fil0 {fill:#E40082}
    .fil5 {fill:#FEFEFE;fill-rule:nonzero}
   ]]>
  </style>
 </defs>
 <g id="图层_x0020_1">
  <metadata id="CorelCorpID_0Corel-Layer"/>
  <path class="fil0" d="M57 89c-11,1 -20,-4 -19,-14 3,-16 -5,-21 -16,-22 -9,-1 -15,2 -20,8 -3,4 -3,11 5,11 1,0 2,-2 0,-2 -4,0 -4,-4 -2,-5 4,-2 7,-3 11,-2 5,0 8,3 7,8 -3,8 -2,17 4,25 5,8 16,10 29,11l1 -18z"/>
  <path class="fil1" d="M7 72c1,0 1,0 1,-1 0,-1 0,-1 -1,-1 -4,0 -4,-4 -2,-5 4,-2 7,-3 11,-2 5,0 8,3 7,8 -3,8 -2,17 4,25 5,8 16,10 29,11l0 -6c-5,0 -15,-1 -21,-8 -7,-8 -5,-15 -3,-24 2,-9 -6,-11 -15,-12 -10,-1 -23,11 -10,15z"/>
  <g id="_2076568716304">
   <ellipse class="fil2" transform="matrix(-0.402316 -0.0662618 -0.0426831 0.341352 51.0185 102.915)" rx="8" ry="5"/>
   <ellipse class="fil2" transform="matrix(-0.480059 -0.200238 -0.153088 0.411284 41.3648 100.414)" rx="8" ry="5"/>
   <ellipse class="fil2" transform="matrix(-0.347176 -0.316406 -0.161725 0.35158 31.6917 93.4131)" rx="8" ry="5"/>
   <ellipse class="fil2" transform="matrix(-0.341208 -0.263385 -0.121587 0.333655 32.1706 99.9018)" rx="8" ry="5"/>
   <ellipse class="fil2" transform="matrix(-0.197551 -0.383103 -0.251451 0.250762 23.6731 89.5316)" rx="8" ry="5"/>
   <ellipse class="fil2" transform="matrix(-0.0542144 -0.427616 -0.32219 0.149341 26.9776 81.9249)" rx="8" ry="5"/>
   <ellipse class="fil2" transform="matrix(0.0895584 -0.421632 -0.353393 0.0349687 27.9691 71.2849)" rx="8" ry="5"/>
   <ellipse class="fil2" transform="matrix(-0.0412065 -0.356973 -0.269976 0.121489 21.1205 79.4598)" rx="8" ry="5"/>
   <ellipse class="fil2" transform="matrix(0.00657299 -0.359283 -0.28372 0.0845531 22.4551 70.592)" rx="8" ry="5"/>
   <ellipse class="fil2" transform="matrix(-0.366171 -0.165492 -0.0384965 0.32881 25.7423 62.6289)" rx="8" ry="5"/>
   <ellipse class="fil2" transform="matrix(-0.277938 -0.10229 -0.0109078 0.243755 20.1092 63.6839)" rx="8" ry="5"/>
   <ellipse class="fil2" transform="matrix(-0.330108 0.0405789 0.114288 0.24904 15.0623 59.3788)" rx="8" ry="5"/>
   <ellipse class="fil2" transform="matrix(-0.273474 0.0665825 0.128804 0.168842 9.36755 61.5727)" rx="8" ry="5"/>
   <ellipse class="fil2" transform="matrix(-0.151108 0.143207 0.150166 0.0828781 4.16882 63.4074)" rx="8" ry="5"/>
   <ellipse class="fil2" transform="matrix(0.143874 0.0488809 0.00245161 -0.125163 5.30916 69.6026)" rx="8" ry="5"/>
  </g>
  <g id="_2076568720464">
   <ellipse class="fil2" transform="matrix(-0.191884 -0.210002 -0.210002 0.191884 91.5907 131.968)" rx="8" ry="5"/>
   <ellipse class="fil2" transform="matrix(-0.141395 -0.143203 -0.143203 0.141395 87.8786 127.485)" rx="8" ry="5"/>
  </g>
  <path class="fil0" d="M135 39c0,0 -8,7 0,10 7,4 13,12 3,24 -11,13 -17,10 -17,10l-7 -12c0,-1 6,-1 13,-5 7,-3 14,-9 9,-13 -9,-5 -7,-10 -1,-14z"/>
  <path class="fil1" d="M139 71c0,1 -1,2 -1,2 -11,13 -17,10 -17,10l-3 -6c9,0 21,-6 21,-6z"/>
  <path class="fil0" d="M80 77c-7,1 -13,-2 -18,-10 -3,-6 -3,-11 -1,-19 3,-12 -5,-22 -14,-26 -7,-3 -13,0 -14,7 7,-4 11,-2 15,3 8,12 -3,19 -4,31 -2,13 3,21 11,25l27 -1 -2 -10z"/>
  <path class="fil1" d="M33 29c7,-4 11,-2 15,3 8,12 -3,19 -4,31 -2,13 3,21 11,25l6 -1c-5,-2 -15,-8 -15,-20 1,-15 14,-25 3,-36 -10,-11 -16,-2 -16,-2z"/>
  <path class="fil0" d="M176 71c6,4 10,0 8,-6 -6,-3 -10,2 -14,7 -7,11 -9,17 -9,22l-35 -6 1 -7c16,3 23,-7 37,-23 11,-10 23,-6 28,7 5,16 -18,20 -16,6z"/>
  <path class="fil1" d="M187 79l-1 0 -1 0c-5,1 -10,-1 -9,-8 0,0 2,9 11,8z"/>
  <path class="fil1" d="M184 65c-6,-3 -10,2 -14,7 -7,11 -9,17 -9,22l-29 -5c1,-1 3,-2 6,-2 16,0 23,-13 30,-22 8,-9 16,0 16,0z"/>
  <path class="fil0" d="M96 95c-1,5 -3,10 -9,11 -5,1 -9,0 -12,-3 -3,-2 -5,-1 -3,5 2,7 3,13 2,18 -2,16 -24,11 -23,0 1,-9 0,-9 -4,-12 2,-3 5,-3 8,-1 3,2 3,4 5,9 0,-2 1,-5 -1,-8 -7,-8 -8,-15 -7,-21 2,-11 12,-13 22,-10 5,2 8,4 9,5l6 -5 7 12z"/>
  <path class="fil1" d="M93 102c-1,2 -3,4 -6,4 -5,1 -9,0 -12,-3 -3,-2 -5,-1 -3,5 2,7 3,13 2,18 -2,16 -24,11 -23,0 1,-9 0,-9 -4,-12 11,-5 8,17 17,18 10,2 5,-14 3,-28 -1,-13 11,-9 15,-2 5,6 11,0 11,0z"/>
  <path class="fil1" d="M176 36c0,-11 -28,-3 -25,20l4 21c2,13 -6,15 -22,10l9 19 7 4c11,-1 18,-7 20,-25 0,-8 -5,-16 -8,-30 -2,-15 9,-23 15,-19z"/>
  <path class="fil0" d="M176 36c0,-11 -28,-3 -25,20l4 21c2,13 -6,15 -22,10l5 11c2,1 4,0 6,0 12,-1 20,-11 14,-28 -7,-18 -6,-26 4,-34 10,-8 14,0 14,0z"/>
  <path class="fil0" d="M100 96c17,0 28,-13 28,-30 0,-16 7,-19 7,-31 0,-19 -16,-35 -35,-35 -19,0 -35,16 -35,35 0,12 7,15 7,31 0,16 20,45 24,30 1,-1 2,-1 2,0 0,1 1,0 2,0z"/>
  <g id="_2076568725744">
   <ellipse class="fil2" cx="156" cy="51" rx="1" ry="4"/>
   <ellipse class="fil2" transform="matrix(-0.366466 0.118634 0.118634 0.366466 157.915 62.2479)" rx="5" ry="9"/>
   <ellipse class="fil2" transform="matrix(-0.417218 0.0747373 0.101552 0.339732 162.159 73.4424)" rx="4" ry="12"/>
   <ellipse class="fil2" transform="matrix(-0.384289 0.0315726 0.0263231 0.460926 168.24 79.3669)" rx="5" ry="9"/>
   <ellipse class="fil2" transform="matrix(-0.610102 -0.215044 -0.121088 0.527446 163.003 87.3937)" rx="4" ry="12"/>
   <ellipse class="fil2" transform="matrix(-0.610102 -0.174241 -0.121088 0.427366 168.07 93.2205)" rx="4" ry="12"/>
   <ellipse class="fil2" transform="matrix(-0.711125 -0.330973 -0.303336 0.379453 155.956 100.077)" rx="4" ry="12"/>
   <ellipse class="fil2" transform="matrix(-0.277551 -0.267658 -0.328662 0.324233 159.782 105.274)" rx="5" ry="9"/>
   <ellipse class="fil2" cx="161" cy="53" rx="1" ry="4"/>
   <ellipse class="fil2" transform="matrix(-0.209057 -0.155249 -0.148553 0.200041 159.765 41.2153)" rx="4" ry="12"/>
   <ellipse class="fil2" transform="matrix(-0.23835 -0.104863 -0.100341 0.228071 161.875 44.344)" rx="4" ry="12"/>
   <ellipse class="fil2" transform="matrix(-0.116724 -0.149217 -0.142782 0.11169 165.169 36.2169)" rx="4" ry="12"/>
   <ellipse class="fil2" transform="matrix(-0.330984 0.106205 0.106205 0.330984 163.279 63.9652)" rx="4" ry="12"/>
  </g>
  <path class="fil0" d="M185 111c-9,-5 -10,4 -14,6 -5,1 -9,-1 -12,-8 -5,-13 -12,-21 -21,-23l-14 -10 -13 12 22 15c5,3 5,16 24,23 8,2 24,-1 23,-9 -1,-4 2,-5 5,-6z"/>
  <path class="fil1" d="M122 96l11 7c5,3 5,16 24,23 8,2 24,-1 23,-9 -1,-4 2,-5 5,-6 0,0 -7,0 -8,6 -1,7 -14,6 -19,4 -4,-3 -8,-6 -13,-14 -4,-7 -12,-11 -23,-11z"/>
  <path class="fil0" d="M109 88c16,-3 24,0 25,9 0,6 -3,13 -15,20 -4,3 -9,7 -11,15 -2,6 -11,6 -14,3 -2,-2 -5,-5 -7,-9 4,-1 5,4 8,3 2,1 4,-3 4,-8 1,-7 6,-11 12,-16 4,-3 3,-8 -1,-7 -4,1 -3,5 -7,7 -4,1 -5,-4 -5,-11l11 -6z"/>
  <path class="fil1" d="M134 99c0,6 -4,12 -15,18 -4,3 -9,7 -11,15 -2,6 -11,6 -14,3 -2,-2 -5,-5 -7,-9 12,17 18,5 20,0 1,-5 2,-9 14,-14 12,-5 13,-13 13,-13z"/>
  <g id="_2076568731440">
   <ellipse class="fil2" transform="matrix(-0.235375 -0.466385 -0.582245 0.155654 139.293 108.147)" rx="7" ry="3"/>
   <ellipse class="fil2" transform="matrix(-0.322323 -0.411126 -0.540377 0.266889 145.671 117.75)" rx="7" ry="3"/>
   <ellipse class="fil2" transform="matrix(-0.497616 -0.159043 -0.297113 0.524367 153.954 123.966)" rx="7" ry="3"/>
   <ellipse class="fil2" transform="matrix(-0.414489 0.0115302 -0.0848641 0.47078 164.894 126.345)" rx="7" ry="3"/>
   <ellipse class="fil2" transform="matrix(-0.282431 0.14594 0.0981023 0.353397 173.902 124.605)" rx="7" ry="3"/>
   <ellipse class="fil2" transform="matrix(-0.163426 0.272686 0.269333 0.248944 178.38 120.162)" rx="7" ry="3"/>
   <ellipse class="fil2" transform="matrix(-0.175037 0.146529 0.12413 0.232262 180.049 114.355)" rx="7" ry="3"/>
  </g>
  <g id="_2076568733360">
   <ellipse class="fil2" transform="matrix(-0.34306 -0.0560315 -0.0560315 0.34306 177.397 62.4882)" rx="7" ry="3"/>
   <ellipse class="fil2" transform="matrix(-0.340173 0.227894 0.177012 0.437954 170.539 64.4053)" rx="7" ry="3"/>
   <ellipse class="fil2" transform="matrix(-0.241054 -0.250445 -0.250445 0.241054 177.856 77.0363)" rx="7" ry="3"/>
   <ellipse class="fil2" transform="matrix(-0.571123 0.209786 0.102024 0.694476 150.509 86.4)" rx="7" ry="3"/>
  </g>
  <g id="_2076568733616">
   <ellipse class="fil2" transform="matrix(-0.246852 0.0173998 0.0173998 0.246852 86.2533 105.186)" rx="8" ry="5"/>
   <ellipse class="fil2" transform="matrix(-0.269764 -0.217193 -0.217193 0.269764 78.0878 100.634)" rx="8" ry="5"/>
   <ellipse class="fil2" transform="matrix(-0.346203 0.0094325 0.0094325 0.346203 70.9899 99.3597)" rx="8" ry="5"/>
   <ellipse class="fil2" transform="matrix(0.109091 0.328702 0.328702 -0.109091 70.2629 106.16)" rx="8" ry="5"/>
   <ellipse class="fil2" transform="matrix(0.0386359 0.479497 0.34417 -0.0538275 73.2709 117.047)" rx="8" ry="5"/>
   <ellipse class="fil2" transform="matrix(-0.0544334 0.407936 0.345703 0.0325269 72.9722 126.493)" rx="8" ry="5"/>
   <ellipse class="fil2" transform="matrix(-0.407257 -0.059303 -0.0366545 0.345289 66.005 133.461)" rx="8" ry="5"/>
   <ellipse class="fil2" transform="matrix(-0.231975 -0.246384 -0.200119 0.203643 56.589 129.514)" rx="8" ry="5"/>
   <ellipse class="fil2" transform="matrix(-0.0405803 -0.335962 -0.28191 0.0452185 50.8489 125.687)" rx="8" ry="5"/>
   <ellipse class="fil2" transform="matrix(-0.20839 -0.128867 -0.101817 0.179909 56.1734 134.232)" rx="8" ry="5"/>
   <ellipse class="fil2" transform="matrix(-0.057072 -0.238277 -0.199015 0.0559219 53.0071 119.981)" rx="8" ry="5"/>
   <ellipse class="fil2" transform="matrix(-0.241759 -0.0398179 -0.0256491 0.205125 49.9521 115.131)" rx="8" ry="5"/>
  </g>
  <g id="_2076568736976">
   <ellipse class="fil2" transform="matrix(-0.347176 -0.316406 -0.161725 0.35158 50.3118 84.5611)" rx="8" ry="5"/>
   <ellipse class="fil2" transform="matrix(-0.153124 -0.513232 -0.31041 0.267099 45.3761 75.4381)" rx="8" ry="5"/>
   <ellipse class="fil2" transform="matrix(-0.0581449 -0.525538 -0.353455 0.204125 44.3412 64.161)" rx="8" ry="5"/>
   <ellipse class="fil2" transform="matrix(0.193854 -0.491926 -0.407867 0.0155654 46.8107 54.2338)" rx="8" ry="5"/>
   <ellipse class="fil2" transform="matrix(0.00971712 -0.462598 -0.330015 0.13663 51.0032 44.559)" rx="8" ry="5"/>
   <ellipse class="fil2" transform="matrix(-0.16846 -0.386568 -0.221 0.238996 49.9187 35.6421)" rx="8" ry="5"/>
   <ellipse class="fil2" transform="matrix(-0.2799 -0.203634 -0.0571188 0.261024 45.0271 28.984)" rx="8" ry="5"/>
   <ellipse class="fil2" transform="matrix(-0.310202 0.0133082 0.105633 0.215147 39.0054 26.6847)" rx="8" ry="5"/>
  </g>
  <ellipse class="fil2" transform="matrix(-0.285038 0.198955 0.198955 0.285038 131.941 76.7614)" rx="8" ry="5"/>
  <g id="_2076568739472">
   <ellipse class="fil2" transform="matrix(-0.278181 0.208435 0.208435 0.278181 124.233 112.463)" rx="8" ry="5"/>
   <ellipse class="fil2" transform="matrix(-0.0297655 0.282903 0.282903 0.0297655 110.031 127.596)" rx="8" ry="5"/>
   <ellipse class="fil2" transform="matrix(-0.278952 0.0557274 0.0557274 0.278952 103.501 135.781)" rx="8" ry="5"/>
   <ellipse class="fil2" transform="matrix(-0.219741 0.180648 0.180648 0.219741 118.642 117.251)" rx="8" ry="5"/>
   <ellipse class="fil2" transform="matrix(-0.158625 0.236132 0.236132 0.158625 113.575 121.21)" rx="8" ry="5"/>
  </g>
  <circle class="fil3" cx="100" cy="31" r="20"/>
  <circle class="fil4" cx="104" cy="28" r="11"/>
  <circle class="fil3" cx="109" cy="23" r="5"/>
  <path class="fil5" d="M107 60c1,0 2,0 3,1 0,1 0,2 -1,2 -1,1 -3,2 -4,2 -2,1 -3,1 -5,1 -1,0 -3,0 -5,-1 -1,0 -2,-1 -4,-2 -1,0 -1,-1 -1,-2 1,-1 2,-1 3,-1 1,1 2,1 3,2 2,0 3,0 4,0 1,0 3,0 4,0 1,-1 2,-1 3,-2z"/>
 </g>
</svg>
